<?xml version="1.0" encoding="UTF-8" standalone="no"?>
<!DOCTYPE svg PUBLIC "-//W3C//DTD SVG 1.1//EN" "http://www.w3.org/Graphics/SVG/1.1/DTD/svg11.dtd">
<svg xmlns="http://www.w3.org/2000/svg" xmlns:xlink="http://www.w3.org/1999/xlink" version="1.1" viewBox="-30 -210 2570 2248">
  <g transform="matrix(1 0 0 -1 0 1638)">
   <path fill="currentColor" d="M1599 1387q-20 0 -34 15.5t-14 37.5q0 24 14 39.5t34 15.5t34 -15.5t14 -39.5q0 -22 -14 -37.5t-34 -15.5zM550 1270q-21 0 -36 17t-15 41q0 23 15 40t36 17t36.5 -17t15.5 -40q0 -24 -15.5 -41t-36.5 -17zM1926 233l120 18q-36 55 -79 143l-121 -18q18 -36 38 -72 t42 -71zM1819 432l120 18q-17 41 -30.5 77t-22.5 68l-124 -17q12 -41 26 -77.5t31 -68.5zM1741 634l127 18l-38 146l-130 -15q9 -39 19.5 -76t21.5 -73zM1785 368l-134 -20q23 -44 43 -79.5t39 -63.5l129 19l-44 81zM1589 340l-132 -19q24 -48 44.5 -83.5t37.5 -61.5l130 19 q-11 16 -30.5 52t-49.5 93zM1794 1005l-138 -15l29 -149l134 16zM1346 147l130 19q-11 18 -31.5 54.5t-49.5 92.5l-134 -19zM1152 119l129 19q-26 39 -46 75.5t-36 71.5l-132 -19l39 -72zM1623 404l135 20l-57 146l-136 -18zM1597 983l-138 -16l29 -151l140 17 q-2 6 -9.5 43.5t-21.5 106.5zM1004 258l-133 -19q40 -82 88 -149l130 19q-5 4 -17 21t-29 49q-33 62 -39 79zM1506 544l-137 -18q20 -53 34.5 -89.5t25.5 -59.5l134 19q-34 76 -57 148zM1545 608l137 19q-15 53 -25.5 89.5t-15.5 58.5l-138 -16q5 -25 16 -62.5t26 -88.5z M810 231l-135 -19q24 -47 46.5 -84t44.5 -67l128 19q-23 36 -43.5 73t-40.5 78zM1400 960l-139 -17q12 -63 20 -100.5t11 -50.5l139 17zM1234 350l134 19l-59 149l-137 -18q16 -42 31 -79.5t31 -70.5zM1444 752l-138 -18l43 -152l138 19q-14 46 -24.5 83.5t-18.5 67.5z M1038 322l134 20l-60 150l-136 -18q20 -53 35.5 -90.5t26.5 -61.5zM916 466l-137 -18l63 -153l136 19q-14 27 -29.5 64.5t-32.5 87.5zM1153 558l137 17l-43 152l-138 -17q8 -41 19 -78.5t25 -73.5zM1050 703l-138 -18q5 -25 16 -63t28 -90l137 18q-18 57 -28 94.5t-15 58.5z M1005 915l-138 -17l30 -156l138 18l-13 71zM1203 938l-139 -16l12 -69l19 -86l139 18q-10 37 -17 75t-14 78zM852 678l-137 -18q9 -39 20 -77.5t25 -76.5l137 18q-9 26 -20 64.5t-25 89.5zM721 440l-137 -18q20 -54 36.5 -92.5t27.5 -61.5l134 19q-15 32 -30.5 70t-30.5 83z M808 892l-139 -16l31 -157l138 17q-27 132 -30 156zM656 653l-138 -16q18 -75 45 -157l137 18zM611 870l-139 -17l31 -158l138 16zM770 1099q-28 0 -42 17.5t-14 39.5q0 20 14 37.5t42 19.5q136 6 313.5 25.5t400.5 53.5h11q23 0 42 -14t19 -43q0 -39 -46 -49 q-23 -6 -56 -12t-77 -13q-42 -7 -77.5 -9.5t-64.5 -2.5l-74 -7q-50 -5 -98.5 -12l-97 -14t-97 -12t-98.5 -5zM2127 228q0 -24 -25 -27l-1350 -201q-12 0 -23 11q-60 87 -109 181.5t-88.5 200t-70 225t-52.5 256.5q0 31 26 34l1376 160q37 0 37 -26q72 -527 273 -795 q6 -5 6 -19zM636 -134l1658 247q-59 79 -108.5 173t-91.5 206q-84 223 -127 508q-22 143 -35 279t-9 269l1 52l-1718 -160q0 -454 110 -859q107 -400 320 -715zM2392 113q0 -40 -24.5 -66t-58.5 -31l-1658 -248q-39 0 -58 9q-9 4 -22.5 19t-33.5 41q-160 -28 -240.5 -41.5 t-84.5 -13.5q-41 0 -70 28t-29 71l-5 1543q-1 95 90 115l1726 160q21 0 39 -8.5t31 -22.5t20.5 -31.5t7.5 -35.5v-45q0 -131 10 -264.5t31 -270.5q42 -273 121 -487t189 -362q19 -25 19 -59z"/>
  </g>

</svg>